<?xml version="1.0" encoding="UTF-8"?>
<svg width="377px" height="172px" viewBox="0 0 377 172" version="1.1" xmlns="http://www.w3.org/2000/svg" xmlns:xlink="http://www.w3.org/1999/xlink">
    <!-- Generator: Sketch 49.1 (51147) - http://www.bohemiancoding.com/sketch -->
    <title>Logo</title>
    <desc>Created with Sketch.</desc>
    <defs>
        <path d="M0,5.20310347 C9.48438318,4.49997787 15.6757019,4.14842034 18.5741419,4.14842034 C21.4725819,4.14842034 23.761612,4.41794778 25.441301,4.95701074 C27.1209899,5.49607371 28.6248749,6.24215691 29.9530011,7.19528273 C32.5311283,9.02340931 34.4803195,11.4530625 35.8006331,14.4843151 C37.1209468,17.5155677 37.7810937,20.5858368 37.7810937,23.6952145 C37.7810937,26.8045922 37.2771946,29.5193975 36.2693812,31.839712 C35.2615678,34.1600265 33.8670563,36.1170301 32.0858048,37.7107815 C28.4451766,41.0076593 23.7343057,42.6482611 17.9530507,42.6326361 L0,42.6327467 L0,5.20310347 Z M14.5780647,17.0858668 C15.7030657,15.7733657 16.9413294,15.117125 18.2928931,15.117125 C19.6444567,15.117125 20.7420975,15.7225851 21.5858482,16.9335237 C22.4295989,18.1444622 22.851468,19.4608499 22.851468,20.8827261 C22.851468,23.8046036 20.9921192,26.6014391 17.273366,29.2733164 C16.3046152,29.960817 15.4061904,30.6561197 14.5780647,31.3592453 L14.5780647,17.0858668 Z M81.5152878,29.7420645 C83.7027896,29.7264394 85.35511,30.339712 86.4722985,31.5819006 C87.589487,32.8240892 88.1480728,34.3748485 88.1480728,36.2342251 C88.1480728,38.0936017 87.4605825,39.7693593 86.0855814,41.261548 C84.7105802,42.7537368 82.882481,43.4959138 80.601229,43.4881013 C78.3199771,43.4802888 76.6325009,42.8709224 75.53875,41.6599839 C74.444999,40.4490454 73.8981318,38.9256294 73.8981318,37.0896903 C73.8981318,35.2537512 74.624684,33.5701813 76.0778103,32.03893 C77.5309365,30.5076786 79.3434109,29.7420645 81.5152878,29.7420645 Z M66.7887862,32.4920531 C65.3512849,32.4920531 63.8747433,33.0154832 62.359117,34.0623591 C60.8434907,35.109235 60.0778765,36.1014085 60.0622515,37.0389093 L60.0622515,50.632603 L45.9529349,50.632603 L45.9529349,21.4999111 L60.0622515,21.4999111 L60.0622515,24.6170857 C60.8591272,23.4139596 61.8473945,22.4530357 63.027083,21.7342851 C64.2067715,21.0155345 65.46066,20.585853 66.7887862,20.4452279 L66.7887862,32.4920531 Z M119.999504,5.20310347 L125.366669,5.20310347 L143.460344,22.1952207 L162.046205,5.20310347 L167.225871,5.20310347 L167.225871,42.6326361 L151.827497,42.6326361 L151.827497,30.4920614 L142.265036,40.9920179 L132.960387,30.7733102 L132.960387,42.6326361 L119.999504,42.6326361 L119.999504,5.20310347 Z M228.584992,43.49982 C224.116238,43.49982 220.26473,42.0857775 217.030352,39.2576501 C213.577224,36.2576475 211.850686,32.4803571 211.850686,27.9256657 C211.850686,23.3709743 213.467851,19.6444645 216.702228,16.7460245 C219.936606,13.8475845 223.928737,12.3983862 228.678741,12.3983862 C233.428746,12.3983862 237.420877,13.8163349 240.655254,16.6522749 C243.889632,19.4882148 245.514609,23.2811299 245.530234,28.031134 C245.545859,31.0780117 244.772433,33.7732861 243.209931,36.1170381 C241.64743,38.4607901 239.561522,40.2732645 236.952145,41.5545156 C234.342767,42.8357667 231.553744,43.484195 228.584992,43.49982 Z M233.131848,21.7967848 C232.819348,21.6405347 232.41701,21.5624108 231.924822,21.5624108 C231.432634,21.5624108 230.889673,21.70694 230.295922,21.9960028 C229.702172,22.2850655 229.116243,22.6795912 228.538117,23.1795916 C227.319366,24.2420925 226.295943,25.5311368 225.467817,27.0467631 C224.639691,28.5623894 224.225635,29.9569009 224.225635,31.2303395 C224.225635,32.5037781 224.710003,33.3592348 225.678754,33.7967352 C226.022504,33.9529853 226.444373,34.0311092 226.944374,34.0311092 C227.444374,34.0311092 227.967804,33.8787676 228.51468,33.5740799 C229.061555,33.2693921 229.608422,32.8592416 230.155298,32.3436162 C231.295924,31.2654903 232.29591,29.956915 233.155285,28.4178512 C234.014661,26.8787874 234.444343,25.4999006 234.444343,24.2811495 C234.444343,23.0623985 234.006849,22.2342852 233.131848,21.7967848 Z M191.842956,40.5076449 L190.553899,40.5076449 C190.147649,40.5076449 189.757029,40.4920201 189.382029,40.4607701 C189.382029,42.3201467 190.374202,43.3357574 192.358579,43.5076325 C192.905455,43.5545075 193.436697,43.5779447 193.952323,43.5779447 C195.280449,43.5779447 196.948394,43.2732615 198.956208,42.663886 C200.964022,42.0545105 202.764778,41.062337 204.35853,39.6873358 L205.811649,46.9763682 C202.327271,49.9919958 197.06172,51.4997869 190.014839,51.4997869 C185.96796,51.4997869 182.491447,50.3201161 179.585195,47.9607391 C176.428942,45.3826119 174.850839,41.8123498 174.850839,37.2498459 C174.850839,33.8123429 175.741452,30.7264491 177.522703,27.9920717 C179.178954,25.4920695 181.42111,23.5936589 184.249238,22.2967828 C187.077365,20.9999066 190.132009,20.3514783 193.413262,20.3514783 C197.663266,20.3514783 200.878064,21.2811527 203.057754,23.1405293 C205.237443,24.9999059 206.323365,27.2967484 206.315553,30.0311258 C206.30774,32.7655031 204.999165,35.1951563 202.389788,37.3201581 C199.78041,39.4451599 196.264835,40.5076449 191.842956,40.5076449 Z M195.007006,29.8436265 C195.007006,28.4686253 194.36639,27.7811351 193.085139,27.7811351 C191.616387,27.9217602 190.663276,28.679562 190.225776,30.0545632 C190.007025,30.7108137 189.854684,31.4725217 189.768746,32.33971 C189.682809,33.2068982 189.553904,34.1326664 189.382029,35.1170422 L194.51482,33.9686095 L194.960131,30.3826868 L195.007006,29.8436265 Z M311.170588,0 C313.467465,0 315.170566,0.480461958 316.279942,1.44140029 C317.389317,2.40233862 317.940091,3.62497758 317.932278,5.10935386 C317.924466,6.59373014 317.213538,7.96089831 315.799475,9.21089939 C314.385411,10.4609005 312.498719,11.0858916 310.139342,11.0858916 C306.826839,11.0858916 304.764368,10.0859058 303.951868,8.08590405 C303.717492,7.52340356 303.600306,6.8984124 303.600306,6.2109118 C303.600306,5.52341121 303.764367,4.80467137 304.092492,4.05467073 C304.420617,3.30467008 304.912798,2.63280458 305.569048,2.03905406 C307.022175,0.679677891 308.889336,0 311.170588,0 Z M317.522124,42.6326361 L303.951868,42.6326361 L303.951868,13.4999441 L317.522124,13.4999441 L317.522124,42.6326361 Z M283.420702,30.9920593 L286.537877,21.4999111 L297.201895,21.4999111 L287.311311,50.8201023 L283.420702,50.8201023 L275.030112,38.6795275 L266.053587,50.8201023 L262.162978,50.8201023 L251.733334,21.4999111 L264.858279,21.4999111 L268.022329,31.2029959 L275.217611,21.4999111 L276.717605,21.4999111 L283.420702,30.9920593 Z M341.584524,51.4997869 C337.11577,51.4997869 333.264262,50.0857444 330.029885,47.257617 C326.576757,44.2576144 324.850219,40.4803241 324.850219,35.9256326 C324.850219,31.3709412 326.467383,27.6444314 329.701761,24.7459914 C332.936139,21.8475514 336.92827,20.3983531 341.678274,20.3983531 C346.428278,20.3983531 350.420409,21.8163018 353.654787,24.6522418 C356.889165,27.4881817 358.514142,31.2810968 358.529767,36.0311009 C358.545392,39.0779786 357.771965,41.773253 356.209464,44.117005 C354.646962,46.460757 352.561054,48.2732314 349.951677,49.5544825 C347.3423,50.8357336 344.553277,51.4841619 341.584524,51.4997869 Z M346.131381,29.7967517 C345.81888,29.6405016 345.416542,29.5623777 344.924354,29.5623777 C344.432166,29.5623777 343.889205,29.7069069 343.295455,29.9959697 C342.701704,30.2850324 342.115775,30.6795581 341.53765,31.1795585 C340.318898,32.2420594 339.295475,33.5311037 338.46735,35.04673 C337.639224,36.5623563 337.225167,37.9568679 337.225167,39.2303064 C337.225167,40.503745 337.709536,41.3592017 338.678286,41.7967021 C339.022037,41.9529522 339.443906,42.0310761 339.943906,42.0310761 C340.443907,42.0310761 340.967337,41.8787345 341.514212,41.5740468 C342.061088,41.269359 342.607955,40.8592085 343.15483,40.3435831 C344.295456,39.2654572 345.295442,37.9568819 346.154818,36.4178181 C347.014194,34.8787543 347.443875,33.4998675 347.443875,32.2811164 C347.443875,31.0623654 347.006381,30.2342521 346.131381,29.7967517 Z" id="path-1"></path>
    </defs>
    <g id="Logo" stroke="none" stroke-width="1" fill="none" fill-rule="evenodd">
        <g id="theme-1/blue" transform="translate(3.000000, 60.000000)">
            <mask id="mask-2" fill="white">
                <use xlink:href="#path-1"></use>
            </mask>
            <use id="Mask" fill="#000000" xlink:href="#path-1"></use>
        </g>
    </g>
</svg>
